<svg height="496pt" viewBox="0 0 496 496" width="496pt" xmlns="http://www.w3.org/2000/svg"><path d="m136 376v40c0 4.398438-3.601562 8-8 8h-16c-4.398438 0-8-3.601562-8-8v-40zm0 0" fill="#e6e9ed"/><path d="m88 344h80v16c0 8.800781-7.199219 16-16 16h-64c-8.800781 0-16-7.199219-16-16v-16zm0 0" fill="#fcd770"/><path d="m168 8 16 32h-128l16-32zm0 0" fill="#dfb28b"/><path d="m200 40h-160c-17.679688 0-32 14.320312-32 32v240c0 17.679688 14.320312 32 32 32h160c17.679688 0 32-14.320312 32-32v-240c0-17.679688-14.320312-32-32-32zm0 0" fill="#e6e9ed"/><path d="m40 344h160c17.679688 0 32-14.320312 32-32v-152c-136 8-168-24-224-24v176c0 17.679688 14.320312 32 32 32zm0 0" fill="#ef7385"/><path d="m432 192v32h-64v-32zm0 0" fill="#fcd770"/><path d="m482.640625 369.921875c3.519531 9.597656 5.359375 19.839844 5.359375 30.238281 0 48.480469-39.359375 87.839844-87.839844 87.839844h-.320312c-24.238282 0-46.238282-9.839844-62.078125-25.761719-15.921875-15.839843-25.761719-37.839843-25.761719-62.078125 0-20.800781 7.359375-40.878906 20.800781-56.71875l67.199219-79.441406 67.199219 79.441406c6.722656 7.917969 11.921875 16.878906 15.441406 26.480469zm0 0" fill="#ef7385"/><path d="m448 376v32h-32v32h-32v-32h-32v-32h32v-32h32v32zm0 0" fill="#e6e9ed"/><path d="m473.328125 338.273438-65.328125-77.203126v-29.070312h32v-48h-32v-40c0-22.054688-17.945312-40-40-40h-56c-22.054688 0-40 17.945312-40 40v312c0 13.230469-10.769531 24-24 24h-96c-13.230469 0-24-10.769531-24-24v-24c8.824219 0 16-7.175781 16-16v-32h8c13.230469 0 24-10.769531 24-24v-8h24c22.054688 0 40-17.945312 40-40v-240c0-22.054688-17.945312-40-40-40h-11.054688l-16-32h-105.890624l-16 32h-11.054688c-22.054688 0-40 17.945312-40 40v240c0 22.054688 17.945312 40 40 40h24v8c0 13.230469 10.769531 24 24 24h8v32c0 8.824219 7.175781 16 16 16v24c0 22.054688 17.945312 40 40 40h96c22.054688 0 40-17.945312 40-40v-312c0-13.230469 10.769531-24 24-24h56c13.230469 0 24 10.769531 24 24v40h-32v48h32v29.070312l-65.328125 77.210938c-14.625 17.269531-22.671875 39.253906-22.671875 61.886719 0 52.839843 42.992188 95.832031 96.167969 95.832031 52.839843 0 95.832031-42.992188 95.832031-95.832031 0-22.632813-8.046875-44.617188-22.671875-61.894531zm-396.382813-322.273438h86.109376l8 16h-102.109376zm-60.945312 296v-240c0-13.230469 10.769531-24 24-24h160c13.230469 0 24 10.769531 24 24v240c0 13.230469-10.769531 24-24 24h-104v-32h48v-16h-48v-32h32v-16h-32v-32h48v-16h-48v-32h32v-16h-32v-32h48v-16h-48v-32h-16v272h-40c-13.230469 0-24-10.769531-24-24zm64 48v-8h80v8c0 4.40625-3.59375 8-8 8h-64c-4.40625 0-8-3.59375-8-8zm48 24v32h-16v-32zm248-184h48v16h-48zm23.832031 280c-44.015625 0-79.832031-35.816406-79.832031-79.832031 0-18.855469 6.703125-37.167969 18.886719-51.558594l61.113281-72.226563 61.113281 72.226563c12.183594 14.390625 18.886719 32.703125 18.886719 51.558594 0 44.015625-35.816406 79.832031-80.167969 79.832031zm0 0"/><path d="m424 336h-48v32h-32v48h32v32h48v-32h32v-48h-32zm16 48v16h-32v32h-16v-32h-32v-16h32v-32h16v32zm0 0"/></svg>